<?xml version="1.0" encoding="UTF-8"?><svg id="Layer_2" xmlns="http://www.w3.org/2000/svg" viewBox="0 0 52.8 60"><defs><style>.cls-1{fill:#fff;}</style></defs><g id="Layer_1-2"><g id="filter"><path class="cls-1" d="m49.61,0H3.15C1.4.06.01,1.48,0,3.23v4.22c0,.71.23,1.41.66,1.97l16.53,21.87c1.18,1.58,1.82,3.5,1.82,5.47v11.36c0,2.31,1.06,4.49,2.87,5.91l6.8,5.28c.56.44,1.25.67,1.96.68.49,0,.98-.11,1.41-.34,1.09-.55,1.76-1.68,1.73-2.89v-19.98c0-1.98.63-3.91,1.82-5.49l16.53-21.85c.43-.57.66-1.26.66-1.97V3.25C52.82,1.48,51.4.02,49.63,0c0,0-.01,0-.02,0Zm-1.03,7.16l-16.32,21.58c-1.74,2.33-2.68,5.16-2.68,8.07v17.87l-5.17-3.99c-.75-.64-1.17-1.57-1.16-2.56v-11.36c0-2.89-.94-5.7-2.69-8.01L4.22,7.16v-2.94h44.35v2.94Z"/></g></g></svg>