<?xml version="1.0" encoding="UTF-8"?><svg id="Layer_2" xmlns="http://www.w3.org/2000/svg" viewBox="0 0 94.83 90.6"><defs><style>.cls-1{fill:#fff;}.cls-2{fill:none;stroke:#fff;stroke-linecap:round;stroke-linejoin:round;stroke-width:4px;}</style></defs><g id="Layer_1-2"><path class="cls-1" d="m57.83,11.74c18.2,0,33,14.8,33,33s-14.8,33-33,33c-6.98,0-13.64-2.16-19.2-6.15l39.7-22.92c1.24-.71,2-2.04,2-3.46s-.76-2.75-2-3.46l-40.4-23.32c5.7-4.33,12.6-6.67,19.9-6.67m0-4c-10.49,0-19.95,4.37-26.68,11.38l45.18,26.08-44.61,25.75c6.69,6.66,15.92,10.78,26.11,10.78,20.43,0,37-16.57,37-37S78.27,7.74,57.83,7.74h0Z"/><polyline class="cls-2" points="75.56 65.21 73.31 78.01 86.11 80.27"/><polygon class="cls-2" points="77 45.3 2 2 2 88.6 77 45.3"/></g></svg>